<svg xmlns="http://www.w3.org/2000/svg" width="24" height="24" viewBox="0 0 24 24" fill="none" stroke="currentColor" stroke-width="2" stroke-linecap="round" stroke-linejoin="round"><path d="M9.6 20 L7 20 A3 3 0 0 1 4 17 L4 11 A3 3 0 0 1 7 8 L17 8 A3 3 0 0 1 20 11 L20 17 A3 3 0 0 1 17 20 L14.4 20"/><path d="M12 8 L12 4.5"/><path d="M2 12.5 L2 15.5"/><path d="M22 12.5 L22 15.5"/><circle cx="12" cy="3.8" r="1.3" fill="currentColor" stroke="none"/><circle cx="9" cy="13.5" r="1.4" fill="currentColor" stroke="none"/><circle cx="15" cy="13.5" r="1.4" fill="currentColor" stroke="none"/></svg>
