<svg xmlns="http://www.w3.org/2000/svg" width="24" height="24" viewBox="0 0 24 24" fill="none" stroke="currentColor" stroke-width="2" stroke-linecap="round" stroke-linejoin="round"><path d="M3 9.3 L3 5 A2 2 0 0 1 5 3 L9 3 A2 2 0 0 1 11 5 L11 19 A2 2 0 0 1 9 21 L5 21 A2 2 0 0 1 3 19 L3 14.7"/><path d="M15 3 H19 A2 2 0 0 1 21 5 V9 A2 2 0 0 1 19 11 H15 A2 2 0 0 1 13 9 V5 A2 2 0 0 1 15 3 Z"/><path d="M15 13 H19 A2 2 0 0 1 21 15 V19 A2 2 0 0 1 19 21 H15 A2 2 0 0 1 13 19 V15 A2 2 0 0 1 15 13 Z"/></svg>
